<svg width="25" height="16" viewBox="0 0 25 16" fill="none" xmlns="http://www.w3.org/2000/svg">
<path d="M7.517 0.0043289C8.17202 -0.00783269 8.82611 0.0593222 9.465 0.204329C10.0029 0.32177 10.5136 0.540309 10.97 0.848329C11.3915 1.15462 11.725 1.5664 11.937 2.04233C12.1807 2.62757 12.2982 3.2576 12.282 3.89133C12.3097 4.58718 12.132 5.27578 11.771 5.87133C11.3913 6.43381 10.8664 6.88302 10.252 7.17133C11.0857 7.3961 11.8119 7.91097 12.3 8.62333C12.7685 9.37813 13.004 10.2543 12.977 11.1423C12.9925 11.8503 12.8461 12.5525 12.549 13.1953C12.2744 13.7561 11.8723 14.2448 11.375 14.6223C10.863 14.9957 10.2867 15.2719 9.675 15.4373C9.0406 15.6128 8.38523 15.701 7.727 15.6993H0.5V0.0043289H7.517ZM7.1 6.35233C7.61466 6.37354 8.12128 6.21947 8.537 5.91533C8.73609 5.73809 8.89097 5.51674 8.98925 5.26896C9.08752 5.02118 9.12648 4.75385 9.103 4.48833C9.11632 4.17821 9.05457 3.86947 8.923 3.58833C8.81139 3.36449 8.63784 3.17741 8.423 3.04933C8.20539 2.90834 7.96091 2.81402 7.705 2.77233C7.42733 2.71854 7.14478 2.69407 6.862 2.69933H3.774V6.36633H7.1V6.35233ZM7.28 13.0343C7.59124 13.0385 7.90185 13.005 8.205 12.9343C8.48204 12.8731 8.74478 12.7594 8.979 12.5993C9.20846 12.4393 9.39384 12.224 9.518 11.9733C9.66196 11.6537 9.7281 11.3045 9.711 10.9543C9.74221 10.6352 9.69995 10.3133 9.58745 10.013C9.47496 9.71281 9.29521 9.44233 9.062 9.22233C8.5677 8.85826 7.96194 8.67791 7.349 8.71233H3.774V13.0343H7.28Z" fill="#EDEDF2"/>
<path d="M17.64 12.9763C17.897 13.2145 18.1997 13.398 18.5297 13.5155C18.8598 13.6331 19.2103 13.6824 19.56 13.6603C20.1144 13.6743 20.6579 13.5057 21.107 13.1803C21.4723 12.9428 21.749 12.5913 21.894 12.1803H24.505C24.2268 13.3502 23.5474 14.3855 22.585 15.1063C21.6617 15.7192 20.5706 16.0295 19.463 15.9943C18.6725 16.0047 17.888 15.8561 17.156 15.5573C16.4939 15.2812 15.9001 14.8638 15.416 14.3343C14.9338 13.7795 14.5633 13.1367 14.325 12.4413C14.0575 11.664 13.9266 10.8463 13.938 10.0243C13.9331 9.21615 14.0685 8.41325 14.338 7.65133C14.7001 6.57944 15.3925 5.64982 16.3157 4.99587C17.239 4.34191 18.3457 3.99725 19.477 4.01133C20.3123 3.99387 21.1382 4.18934 21.877 4.57933C22.5448 4.94553 23.1209 5.45839 23.562 6.07933C24.0132 6.73088 24.3366 7.46216 24.515 8.23433C24.7107 9.0635 24.7805 9.91739 24.722 10.7673H16.945C16.882 11.5659 17.1311 12.3577 17.64 12.9763ZM21.052 7.00733C20.8344 6.78965 20.5726 6.62114 20.2844 6.51316C19.9961 6.40517 19.6881 6.36022 19.381 6.38133C18.9736 6.36579 18.5691 6.45606 18.207 6.64333C17.9199 6.80138 17.6665 7.01403 17.461 7.26933C17.2789 7.50869 17.1432 7.78003 17.061 8.06933C16.9869 8.3106 16.9406 8.55955 16.923 8.81133H21.74C21.698 8.15498 21.4589 7.52658 21.054 7.00833L21.052 7.00733Z" fill="#EDEDF2"/>
<path d="M22.338 1.05225H16.302V2.59525H22.338V1.05225Z" fill="#EDEDF2"/>
</svg>
