<svg width="19" height="18" viewBox="0 0 19 18" fill="none" xmlns="http://www.w3.org/2000/svg">
<g clip-path="url(#clip0_76_926)">
<path d="M3.93994 1.99992C3.93976 2.398 3.82079 2.78697 3.59826 3.11705C3.37573 3.44712 3.05976 3.70327 2.6908 3.85273C2.32184 4.00218 1.91668 4.03812 1.52717 3.95596C1.13766 3.8738 0.781526 3.67728 0.504359 3.39154C0.227193 3.1058 0.0416014 2.74385 -0.0286592 2.35202C-0.0989197 1.96019 -0.0506526 1.55631 0.109964 1.19207C0.270581 0.827829 0.536239 0.519807 0.872934 0.307429C1.20963 0.0950517 1.60204 -0.0120184 1.99994 -7.60531e-05C2.51991 0.0155299 3.01333 0.233113 3.37553 0.606508C3.73772 0.979903 3.94018 1.47972 3.93994 1.99992ZM3.99994 5.47992H-5.7593e-05V17.9999H3.99994V5.47992ZM10.3199 5.47992H6.33994V17.9999H10.2799V11.4299C10.2799 7.76992 15.0499 7.42992 15.0499 11.4299V17.9999H18.9999V10.0699C18.9999 3.89992 11.9399 4.12992 10.2799 7.15992L10.3199 5.47992Z" fill="#B2B2BA"/>
</g>
<defs>
<clipPath id="clip0_76_926">
<rect width="19" height="18" fill="white"/>
</clipPath>
</defs>
</svg>
