<svg width="44" height="44" viewBox="0 0 44 44" fill="none" xmlns="http://www.w3.org/2000/svg">
<path d="M0 11.2C0 7.27963 0 5.31945 0.762954 3.82207C1.43407 2.50493 2.50493 1.43407 3.82207 0.762954C5.31945 0 7.27963 0 11.2 0H32.8C36.7204 0 38.6806 0 40.1779 0.762954C41.4951 1.43407 42.5659 2.50493 43.237 3.82207C44 5.31945 44 7.27963 44 11.2V32.8C44 36.7204 44 38.6806 43.237 40.1779C42.5659 41.4951 41.4951 42.5659 40.1779 43.237C38.6806 44 36.7204 44 32.8 44H11.2C7.27963 44 5.31945 44 3.82207 43.237C2.50493 42.5659 1.43407 41.4951 0.762954 40.1779C0 38.6806 0 36.7204 0 32.8V11.2Z" fill="#3E74F7"/>
<path fill-rule="evenodd" clip-rule="evenodd" d="M18.6258 32.9998C23.354 32.9998 26.7068 31.3 28.1683 28.3798C28.2112 29.7745 28.2972 31.2128 28.5121 32.3461H34.1C33.7132 30.6027 33.5413 28.5542 33.5413 25.3289V19.1834C33.5413 12.8636 30.0166 9.89982 22.4084 9.89982C15.6169 9.89982 11.1036 12.9508 10.5878 17.7015H16.3906C16.7345 15.13 18.8837 13.7353 22.4084 13.7353C26.0191 13.7353 27.9533 15.2172 27.9533 18.3989V18.8783L20.2592 19.5321C16.2187 19.9243 14.0695 20.5345 12.5221 21.537C10.8027 22.6266 9.90004 24.37 9.90004 26.4621C9.90004 30.5155 13.2958 32.9998 18.6258 32.9998ZM20.4741 29.2515C17.4222 29.2515 15.6599 28.1183 15.6599 26.157C15.6599 24.1521 17.0354 23.1496 20.775 22.7574L28.0393 22.0164V23.1496C28.0393 26.8543 24.9445 29.2515 20.4741 29.2515Z" fill="#EDEDF2"/>
</svg>
